# Blender v2.76 (sub 0) OBJ File: 'tower.blend'
# www.blender.org
mtllib tower.mtl
o Cube
v 1.000000 -1.000000 -1.000000
v 1.000000 -1.000000 1.000000
v -1.000000 -1.000000 1.000000
v -1.000000 -1.000000 -1.000000
v 1.000000 2.637847 -0.999999
v 0.999999 2.637847 1.000001
v -1.000000 2.637847 1.000000
v -1.000000 2.637847 -1.000000
v 1.506783 3.840198 -1.506782
v -1.506783 3.840198 1.506782
v 1.506782 3.840198 1.506783
v -1.506783 3.840198 -1.506783
v -0.000000 5.291109 0.000000
vn 0.000000 -1.000000 0.000000
vn 1.000000 0.000000 0.000000
vn -0.000000 -0.000000 1.000000
vn -1.000000 -0.000000 -0.000000
vn 0.000000 0.000000 -1.000000
vn 0.000000 -0.388400 -0.921500
vn -0.000000 -0.388400 0.921500
vn 0.921500 -0.388400 0.000000
vn -0.921500 -0.388400 -0.000000
vn -0.000000 0.720300 0.693600
vn 0.693600 0.720300 0.000000
vn -0.693600 0.720300 0.000000
vn 0.000000 0.720300 -0.693600
usemtl Material
s off
f 1//1 2//1 3//1 4//1
f 1//2 5//2 6//2 2//2
f 2//3 6//3 7//3 3//3
f 3//4 7//4 8//4 4//4
f 5//5 1//5 4//5 8//5
f 5//6 8//6 12//6 9//6
f 7//7 6//7 11//7 10//7
f 6//8 5//8 9//8 11//8
f 8//9 7//9 10//9 12//9
f 10//10 11//10 13//10
f 11//11 9//11 13//11
f 12//12 10//12 13//12
f 9//13 12//13 13//13
