# Blender v2.76 (sub 0) OBJ File: 'towerx.blend'
# www.blender.org
mtllib towerx.mtl
o Cube
v 1.000000 2.821712 -0.999999
v 0.999999 2.821712 1.000001
v -1.000000 2.821712 1.000000
v -1.000000 2.821712 -1.000000
v 1.557786 3.645247 -1.557784
v 1.557784 3.645247 1.557786
v -1.557785 3.645247 -1.557785
v -1.557786 3.645247 1.557785
v 1.557786 4.654569 -1.557784
v 1.557784 4.654569 1.557786
v -1.557785 4.654569 -1.557785
v -1.557786 4.654569 1.557785
v 2.557786 3.645247 -1.557784
v 2.557784 3.645247 1.557787
v 2.557786 4.654569 -1.557784
v 2.557784 4.654569 1.557787
v 1.557784 3.645247 2.557786
v -1.557786 3.645247 2.557785
v 1.557784 4.654569 2.557786
v -1.557786 4.654569 2.557785
v 1.557786 3.645247 -2.557784
v -1.557785 3.645247 -2.557785
v 1.557786 4.654569 -2.557784
v -1.557785 4.654569 -2.557785
v -2.557786 3.645247 1.557784
v -2.557785 3.645247 -1.557786
v -2.557786 4.654569 1.557784
v -2.557785 4.654569 -1.557786
v -0.000000 5.980994 0.000000
v -1.000001 -2.977871 -0.999999
v -1.000000 -2.977871 1.000001
v 1.000000 -2.977871 1.000000
v 1.000000 -2.977871 -1.000000
v -1.557786 -3.801406 -1.557784
v -1.557784 -3.801406 1.557786
v 1.557785 -3.801406 -1.557785
v 1.557785 -3.801406 1.557785
v -1.557786 -4.810729 -1.557784
v -1.557784 -4.810729 1.557786
v 1.557785 -4.810728 -1.557785
v 1.557785 -4.810728 1.557785
v -2.557786 -3.801407 -1.557784
v -2.557785 -3.801407 1.557787
v -2.557786 -4.810729 -1.557784
v -2.557785 -4.810729 1.557787
v -1.557784 -3.801406 2.557786
v 1.557786 -3.801406 2.557785
v -1.557784 -4.810729 2.557786
v 1.557786 -4.810728 2.557785
v -1.557787 -3.801406 -2.557784
v 1.557784 -3.801406 -2.557785
v -1.557787 -4.810729 -2.557784
v 1.557784 -4.810728 -2.557785
v 2.557785 -3.801406 1.557784
v 2.557785 -3.801406 -1.557786
v 2.557785 -4.810728 1.557784
v 2.557785 -4.810728 -1.557786
v 0.000000 -6.137153 0.000000
vn -0.000000 -0.560800 0.828000
vn 0.000000 -1.000000 0.000000
vn 0.828000 -0.560800 0.000000
vn -0.828000 -0.560800 -0.000000
vn 0.000000 -0.560800 -0.828000
vn 0.000000 0.000000 -1.000000
vn -1.000000 0.000000 -0.000000
vn 1.000000 0.000000 0.000000
vn -0.000000 0.000000 1.000000
vn 0.000000 1.000000 -0.000000
vn -0.648300 0.761400 -0.000000
vn 0.000000 0.761400 -0.648300
vn -0.000000 0.761400 0.648300
vn 0.648300 0.761400 0.000000
vn 0.000000 0.560800 0.828000
vn -0.828000 0.560800 0.000000
vn 0.828000 0.560800 -0.000000
vn -0.000000 0.560800 -0.828000
vn 0.648300 -0.761400 0.000000
vn 0.000000 -0.761400 -0.648300
vn 0.000000 -0.761400 0.648300
vn -0.648300 -0.761400 0.000000
usemtl Material
s off
f 3//1 2//1 6//1 8//1
f 8//2 6//2 17//2 18//2
f 2//3 1//3 5//3 6//3
f 4//4 3//4 8//4 7//4
f 1//5 4//5 7//5 5//5
f 6//2 5//2 13//2 14//2
f 11//6 7//6 26//6 28//6
f 7//7 11//7 24//7 22//7
f 14//8 13//8 15//8 16//8
f 5//6 9//6 15//6 13//6
f 10//9 6//9 14//9 16//9
f 9//10 10//10 16//10 15//10
f 18//9 17//9 19//9 20//9
f 12//7 8//7 18//7 20//7
f 6//8 10//8 19//8 17//8
f 10//10 12//10 20//10 19//10
f 21//6 22//6 24//6 23//6
f 11//10 9//10 23//10 24//10
f 9//8 5//8 21//8 23//8
f 5//2 7//2 22//2 21//2
f 26//7 25//7 27//7 28//7
f 8//9 12//9 27//9 25//9
f 12//10 11//10 28//10 27//10
f 7//2 8//2 25//2 26//2
f 11//11 12//11 29//11
f 9//12 11//12 29//12
f 12//13 10//13 29//13
f 10//14 9//14 29//14
f 32//15 31//15 35//15 37//15
f 37//10 35//10 46//10 47//10
f 31//16 30//16 34//16 35//16
f 33//17 32//17 37//17 36//17
f 30//18 33//18 36//18 34//18
f 35//10 34//10 42//10 43//10
f 40//6 36//6 55//6 57//6
f 36//8 40//8 53//8 51//8
f 43//7 42//7 44//7 45//7
f 34//6 38//6 44//6 42//6
f 39//9 35//9 43//9 45//9
f 38//2 39//2 45//2 44//2
f 47//9 46//9 48//9 49//9
f 41//8 37//8 47//8 49//8
f 35//7 39//7 48//7 46//7
f 39//2 41//2 49//2 48//2
f 50//6 51//6 53//6 52//6
f 40//2 38//2 52//2 53//2
f 38//7 34//7 50//7 52//7
f 34//10 36//10 51//10 50//10
f 55//8 54//8 56//8 57//8
f 37//9 41//9 56//9 54//9
f 41//2 40//2 57//2 56//2
f 36//10 37//10 54//10 55//10
f 40//19 41//19 58//19
f 38//20 40//20 58//20
f 41//21 39//21 58//21
f 39//22 38//22 58//22
f 3//7 4//7 30//7 31//7
f 1//6 33//6 30//6 4//6
f 1//8 2//8 32//8 33//8
f 2//9 3//9 31//9 32//9
